<svg version="1.1" xmlns="http://www.w3.org/2000/svg" viewBox="0 0 1379.9891778356982 1196.1952818972575" width="1379.9891778356982" height="1196.1952818972575" filter="invert(93%) hue-rotate(180deg)">
  <!-- svg-source:excalidraw -->
  
  <defs>
    <style class="style-fonts">
      @font-face {
        font-family: "Virgil";
        src: url("https://excalidraw.com/Virgil.woff2");
      }
      @font-face {
        font-family: "Cascadia";
        src: url("https://excalidraw.com/Cascadia.woff2");
      }
    </style>
    
  </defs>
  <rect x="0" y="0" width="1379.9891778356982" height="1196.1952818972575" fill="#ffffff"></rect><g stroke-linecap="round" transform="translate(505.3604523482058 132.57383943574004) rotate(0 164.2640139256341 77.31312154645403)"><path d="M32 0 M32 0 C95.11 -1.84, 158.21 -1.77, 296.53 0 M32 0 C113.21 0.87, 196.48 -0.22, 296.53 0 M296.53 0 C317.21 -0.04, 329.69 9.89, 328.53 32 M296.53 0 C319.49 -1.46, 326.54 10.99, 328.53 32 M328.53 32 C328.12 53.76, 326.1 75.59, 328.53 122.63 M328.53 32 C329.01 59.41, 329.82 85.58, 328.53 122.63 M328.53 122.63 C328.19 145.22, 319.68 154.31, 296.53 154.63 M328.53 122.63 C330.21 141.92, 316.88 153.87, 296.53 154.63 M296.53 154.63 C228.54 156.24, 163.61 157.04, 32 154.63 M296.53 154.63 C204 155.5, 110.09 156.35, 32 154.63 M32 154.63 C11.45 156.09, -0.47 145.16, 0 122.63 M32 154.63 C10 154.61, -1.1 143.16, 0 122.63 M0 122.63 C0.7 97.08, 0.49 71.79, 0 32 M0 122.63 C-0.26 98.69, -1.37 75.4, 0 32 M0 32 C-1.67 10.67, 10.92 -0.6, 32 0 M0 32 C-0.58 12.92, 11.03 -1.66, 32 0" stroke="#1e1e1e" stroke-width="1" fill="none"></path></g><g transform="translate(634.6944812274533 197.38696098219407) rotate(0 34.92998504638672 12.5)"><text x="34.92998504638672" y="0" font-family="Virgil, Segoe UI Emoji" font-size="20px" fill="#1e1e1e" text-anchor="middle" style="white-space: pre;" direction="ltr" dominant-baseline="text-before-edge">CARGO</text></g><g stroke-linecap="round" transform="translate(496.5886343833384 393.750626580624) rotate(0 164.26401392563415 77.31312154645403)"><path d="M32 0 M32 0 C97.08 0.45, 162.96 -1.84, 296.53 0 M32 0 C100.75 -1.27, 167.82 -2.14, 296.53 0 M296.53 0 C316.3 1.2, 330.05 10.62, 328.53 32 M296.53 0 C315.58 -1.93, 329.18 11.67, 328.53 32 M328.53 32 C330.88 50.77, 327.87 71.43, 328.53 122.63 M328.53 32 C327.85 65.69, 329.31 98.65, 328.53 122.63 M328.53 122.63 C330.53 144.59, 318.27 153.96, 296.53 154.63 M328.53 122.63 C328.39 143, 316.02 152.92, 296.53 154.63 M296.53 154.63 C229.23 156.23, 161.34 155.21, 32 154.63 M296.53 154.63 C210.7 155.57, 124.93 154.68, 32 154.63 M32 154.63 C10.85 153.35, -0.38 145.62, 0 122.63 M32 154.63 C11.85 153.48, -1.56 141.81, 0 122.63 M0 122.63 C2.76 94.65, 1.33 62.35, 0 32 M0 122.63 C-0.64 91.85, 0.57 60.35, 0 32 M0 32 C0.61 12.62, 9.68 -1.18, 32 0 M0 32 C1.4 12.44, 11.33 1.8, 32 0" stroke="#1e1e1e" stroke-width="1" fill="none"></path></g><g transform="translate(598.502687981824 458.563748127078) rotate(0 62.34996032714844 12.5)"><text x="62.34996032714844" y="0" font-family="Virgil, Segoe UI Emoji" font-size="20px" fill="#1e1e1e" text-anchor="middle" style="white-space: pre;" direction="ltr" dominant-baseline="text-before-edge">CANDIDATO</text></g><g stroke-linecap="round" transform="translate(1041.46114998443 351.6728915766272) rotate(0 164.26401392563412 77.31312154645403)"><path d="M32 0 M32 0 C91.98 -0.69, 153.4 -2.27, 296.53 0 M32 0 C135.24 1.23, 239.82 2.61, 296.53 0 M296.53 0 C318.55 0.96, 327.97 11.52, 328.53 32 M296.53 0 C319.15 0.03, 330.76 8.53, 328.53 32 M328.53 32 C329.52 62.17, 328.84 90.31, 328.53 122.63 M328.53 32 C328.98 58.95, 327.64 86.73, 328.53 122.63 M328.53 122.63 C330.01 143.61, 318.7 155.49, 296.53 154.63 M328.53 122.63 C327.89 145.95, 318.73 154.51, 296.53 154.63 M296.53 154.63 C230.38 156.62, 163.78 155.89, 32 154.63 M296.53 154.63 C208.66 153.01, 119.2 152.66, 32 154.63 M32 154.63 C8.91 153.26, -1.38 143.85, 0 122.63 M32 154.63 C11.22 152.74, 1.6 144.8, 0 122.63 M0 122.63 C-0.07 103.76, 0.11 81.68, 0 32 M0 122.63 C-0.08 102.88, -0.51 83.03, 0 32 M0 32 C-1 9.68, 10.62 -0.39, 32 0 M0 32 C-2.12 8.93, 10.86 -1.68, 32 0" stroke="#1e1e1e" stroke-width="1" fill="none"></path></g><g transform="translate(1157.2251944276422 416.4860131230812) rotate(0 48.499969482421875 12.5)"><text x="48.499969482421875" y="0" font-family="Virgil, Segoe UI Emoji" font-size="20px" fill="#1e1e1e" text-anchor="middle" style="white-space: pre;" direction="ltr" dominant-baseline="text-before-edge">PARTIDO</text></g><g stroke-linecap="round" transform="translate(517.2824010350398 730.769007510359) rotate(0 164.2640139256341 77.31312154645406)"><path d="M32 0 M32 0 C98.31 0.27, 165.34 0.16, 296.53 0 M32 0 C110.66 1.58, 189 0.78, 296.53 0 M296.53 0 C316.29 1.42, 329.53 9.49, 328.53 32 M296.53 0 C315.56 1.09, 329.48 9.64, 328.53 32 M328.53 32 C327.71 53.41, 328.37 76.42, 328.53 122.63 M328.53 32 C329.42 67.16, 329.71 101.15, 328.53 122.63 M328.53 122.63 C326.74 143.46, 319.32 155.51, 296.53 154.63 M328.53 122.63 C330.54 143.03, 318.68 156.15, 296.53 154.63 M296.53 154.63 C223.51 152.17, 151.74 153.28, 32 154.63 M296.53 154.63 C219.56 154.59, 142.44 155.35, 32 154.63 M32 154.63 C10.39 155.79, 0.79 142.04, 0 122.63 M32 154.63 C12.31 152.48, 0.69 142.5, 0 122.63 M0 122.63 C-0.99 104.46, 0.64 83.8, 0 32 M0 122.63 C-1.25 87.75, -1.32 52.8, 0 32 M0 32 C1.88 10.3, 11.38 0.13, 32 0 M0 32 C-0.07 10.26, 9.46 1.09, 32 0" stroke="#1e1e1e" stroke-width="1" fill="none"></path></g><g transform="translate(653.8164344919239 795.5821290568128) rotate(0 27.72998046875 12.5)"><text x="27.72998046875" y="0" font-family="Virgil, Segoe UI Emoji" font-size="20px" fill="#1e1e1e" text-anchor="middle" style="white-space: pre;" direction="ltr" dominant-baseline="text-before-edge">VOTO</text></g><g stroke-linecap="round" transform="translate(497.1694969922776 1031.5690388043495) rotate(0 164.26401392563412 77.31312154645406)"><path d="M32 0 M32 0 C131.22 1.3, 233.93 0.89, 296.53 0 M32 0 C114.28 2.33, 197.48 1.74, 296.53 0 M296.53 0 C316.21 -0.43, 326.94 11.45, 328.53 32 M296.53 0 C318.8 0.33, 327.65 10.85, 328.53 32 M328.53 32 C328.4 59.84, 327.71 89.68, 328.53 122.63 M328.53 32 C328.81 68.03, 327.3 103.19, 328.53 122.63 M328.53 122.63 C327.7 142.96, 316.79 156.39, 296.53 154.63 M328.53 122.63 C327.27 145.6, 316.27 152.39, 296.53 154.63 M296.53 154.63 C217.7 153.54, 139.09 152.8, 32 154.63 M296.53 154.63 C238.2 156.81, 181.7 156.49, 32 154.63 M32 154.63 C11.08 155.06, 0.25 145.55, 0 122.63 M32 154.63 C12.95 152.81, -2.22 143.8, 0 122.63 M0 122.63 C1.24 90.22, 0.33 62.7, 0 32 M0 122.63 C-0.72 100.47, -0.64 80.11, 0 32 M0 32 C1.9 11.04, 10.33 0.65, 32 0 M0 32 C-1 9.71, 11.66 0.68, 32 0" stroke="#1e1e1e" stroke-width="1" fill="none"></path></g><g transform="translate(599.9835444872476 1096.3821603508034) rotate(0 61.44996643066406 12.5)"><text x="61.44996643066406" y="0" font-family="Virgil, Segoe UI Emoji" font-size="20px" fill="#1e1e1e" text-anchor="middle" style="white-space: pre;" direction="ltr" dominant-baseline="text-before-edge">CIUDADANO</text></g><g stroke-linecap="round" transform="translate(62.27571099639647 761.3000064440603) rotate(0 164.26401392563412 77.313121546454)"><path d="M32 0 M32 0 C118.61 2.41, 202.68 -0.24, 296.53 0 M32 0 C91.4 -2.15, 149.82 -2.17, 296.53 0 M296.53 0 C317.23 0.24, 326.79 10.81, 328.53 32 M296.53 0 C319.87 0.68, 328.01 9.46, 328.53 32 M328.53 32 C326.85 62.25, 329.04 94.67, 328.53 122.63 M328.53 32 C328.34 50.88, 327.06 68.82, 328.53 122.63 M328.53 122.63 C328.01 144.22, 319.4 154.77, 296.53 154.63 M328.53 122.63 C329.99 142.17, 318.26 152.76, 296.53 154.63 M296.53 154.63 C200.65 152.55, 105.6 154.26, 32 154.63 M296.53 154.63 C217.01 154.25, 137.01 154.01, 32 154.63 M32 154.63 C10.74 154.05, 1.6 145.02, 0 122.63 M32 154.63 C11.85 156.66, -1.03 145.68, 0 122.63 M0 122.63 C0.42 102.73, -0.66 78, 0 32 M0 122.63 C0.85 93.13, 0.92 61.73, 0 32 M0 32 C1.45 11.39, 11.98 -1.37, 32 0 M0 32 C0.92 9.14, 9.42 0.48, 32 0" stroke="#1e1e1e" stroke-width="1" fill="none"></path></g><g transform="translate(199.4997392652923 826.1131279905144) rotate(0 27.03998565673828 12.5)"><text x="27.03998565673828" y="0" font-family="Virgil, Segoe UI Emoji" font-size="20px" fill="#1e1e1e" text-anchor="middle" style="white-space: pre;" direction="ltr" dominant-baseline="text-before-edge">MESA</text></g><g stroke-linecap="round" transform="translate(10 403.4511892045519) rotate(0 164.26401392563412 77.31312154645403)"><path d="M32 0 M32 0 C113.13 -0.87, 193.99 -2.39, 296.53 0 M32 0 C131.5 0.61, 230.79 0.19, 296.53 0 M296.53 0 C316.11 0.69, 328.29 10.89, 328.53 32 M296.53 0 C319.56 1.89, 330.4 10.08, 328.53 32 M328.53 32 C327.48 66.57, 327.53 98.46, 328.53 122.63 M328.53 32 C327.92 61.41, 327.62 90.89, 328.53 122.63 M328.53 122.63 C326.56 144.33, 318.47 153.86, 296.53 154.63 M328.53 122.63 C330.19 145.59, 316.29 156.28, 296.53 154.63 M296.53 154.63 C235.71 154.41, 175.19 154.89, 32 154.63 M296.53 154.63 C234.85 154.6, 173.55 154.94, 32 154.63 M32 154.63 C12.27 153.04, 1.7 142.35, 0 122.63 M32 154.63 C10.57 156.1, 1.48 144.48, 0 122.63 M0 122.63 C-0.12 94.34, 2.34 61.58, 0 32 M0 122.63 C0.27 87.11, -0.36 52.92, 0 32 M0 32 C-0.52 10.27, 11.66 0.37, 32 0 M0 32 C0.73 12.3, 12.41 2.14, 32 0" stroke="#1e1e1e" stroke-width="1" fill="none"></path></g><g transform="translate(89.03406397446224 468.2643107510059) rotate(0 85.22994995117188 12.5)"><text x="85.22994995117188" y="0" font-family="Virgil, Segoe UI Emoji" font-size="20px" fill="#1e1e1e" text-anchor="middle" style="white-space: pre;" direction="ltr" dominant-baseline="text-before-edge">DEPARTAMENTO</text></g><g stroke-linecap="round"><g transform="translate(656.2015768278474 386.7334304221286) rotate(0 -1.110375916329474 -48.47720336381343)"><path d="M-0.93 0.65 C-1.33 -15.38, -2.15 -79.84, -2.26 -95.93 M0.78 -0.06 C0.25 -16.44, -2.58 -81.32, -3 -97.6" stroke="#1e1e1e" stroke-width="1" fill="none"></path></g></g><mask></mask><g stroke-linecap="round"><g transform="translate(673.0100500360248 726.1642506558585) rotate(0 0.9152947822026931 -81.9873373508477)"><path d="M-1.14 1.04 C-0.92 -26.5, 0.12 -137.26, 0.83 -165.01 M0.47 0.54 C1.08 -26.83, 2.55 -136.05, 2.97 -163.55" stroke="#1e1e1e" stroke-width="1" fill="none"></path></g></g><mask></mask><g stroke-linecap="round"><g transform="translate(513.4045213361862 827.9029740562919) rotate(0 -57.533065895561364 -0.8915791029888851)"><path d="M0.26 -0.36 C-19.05 -0.4, -96.03 0.24, -115.33 0.11 M-1.06 -1.59 C-20.02 -2.02, -94.3 -1.97, -112.98 -1.73" stroke="#1e1e1e" stroke-width="1" fill="none"></path></g></g><mask></mask><g stroke-linecap="round"><g transform="translate(192.37654051664737 755.9195709477806) rotate(0 0.3197263478925336 -96.73275223964262)"><path d="M-0.58 -0.96 C-0.66 -33.55, -0.18 -162.53, -0.28 -194.61 M1.32 1.15 C1.15 -31.32, -0.15 -160.35, -0.68 -193.07" stroke="#1e1e1e" stroke-width="1" fill="none"></path></g></g><mask></mask><g stroke-linecap="round"><g transform="translate(672.4639303540765 891.6558905549641) rotate(0 -1.6327666673545593 70.25745414419765)"><path d="M0.48 1.03 C0.01 24.24, -2.19 116.81, -2.99 139.98 M-0.73 0.53 C-1.3 23.34, -3.54 115.41, -3.74 138.36" stroke="#1e1e1e" stroke-width="1" fill="none"></path></g></g><mask></mask><g stroke-linecap="round"><g transform="translate(827.8793495901028 418.7071998676529) rotate(0 101.54299047091342 2.3681906579952283)"><path d="M-0.11 1.06 C33.98 1.57, 170.7 2.32, 204.71 2.86 M-1.62 0.57 C32.36 1.26, 170.07 3.85, 204.21 4.17" stroke="#1e1e1e" stroke-width="1" fill="none"></path></g></g><mask></mask><g transform="translate(373.1498578933282 10) rotate(0 301.95651102409283 32.71611136200583)"><text x="0" y="0" font-family="Virgil, Segoe UI Emoji" font-size="52.345778179209304px" fill="#1e1e1e" text-anchor="start" style="white-space: pre;" direction="ltr" dominant-baseline="text-before-edge">MODELO CONCEPTUAL</text></g></svg>